SourceSansPro_intermediate.ufo
<glyph name="quotesingle" format="1">
  <advance width="312.0"/>
  <unicode hex="0027"/>
  <outline>
    <contour>
      <point x="135.0" y="477.0" type="line"/>
      <point x="174.0" y="477.0" type="line"/>
      <point x="183.0" y="624.2" type="line"/>
      <point x="183.0" y="693.0" type="line"/>
      <point x="126.0" y="693.0" type="line"/>
      <point x="126.0" y="624.2" type="line"/>
    </contour>
  </outline>
</glyph>
<glyph name="parenleft" format="1">
  <advance width="405.0"/>
  <unicode hex="0028"/>
  <outline>
    <contour>
      <point x="333.0" y="-174.6" type="curve"/>
      <point x="360.0" y="-159.4" type="line"/>
      <point x="240.0" y="-33.0"/>
      <point x="177.0" y="120.2"/>
      <point x="177.0" y="278.0" type="curve" smooth="yes"/>
      <point x="177.0" y="435.8"/>
      <point x="240.0" y="589.0"/>
      <point x="360.0" y="715.4" type="curve"/>
      <point x="333.0" y="730.6" type="line"/>
      <point x="210.0" y="598.0"/>
      <point x="135.0" y="454.0"/>
      <point x="135.0" y="278.0" type="curve" smooth="yes"/>
      <point x="135.0" y="102.0"/>
      <point x="210.0" y="-42.0"/>
    </contour>
  </outline>
</glyph>
<glyph name="asterisk" format="1">
  <advance width="579.0"/>
  <unicode hex="002A"/>
  <outline>
    <contour>
      <point x="195.0" y="462.3" type="line"/>
      <point x="291.0" y="545.2" type="line"/>
      <point x="384.0" y="462.3" type="line"/>
      <point x="417.0" y="481.8" type="line"/>
      <point x="336.0" y="569.9" type="line"/>
      <point x="468.0" y="605.7" type="line"/>
      <point x="456.0" y="635.6" type="line"/>
      <point x="318.0" y="611.5" type="line"/>
      <point x="309.0" y="712.0" type="line"/>
      <point x="270.0" y="712.0" type="line"/>
      <point x="261.0" y="609.8" type="line"/>
      <point x="123.0" y="635.6" type="line"/>
      <point x="111.0" y="605.7" type="line"/>
      <point x="243.0" y="569.9" type="line"/>
      <point x="162.0" y="481.8" type="line"/>
    </contour>
  </outline>
</glyph>
<glyph name="plus" format="1">
  <advance width="708.0"/>
  <unicode hex="002B"/>
  <outline>
    <contour>
      <point x="330.0" y="109.8" type="line"/>
      <point x="378.0" y="109.8" type="line"/>
      <point x="378.0" y="311.4" type="line"/>
      <point x="657.0" y="311.4" type="line"/>
      <point x="657.0" y="348.6" type="line"/>
      <point x="378.0" y="348.6" type="line"/>
      <point x="378.0" y="550.2" type="line"/>
      <point x="330.0" y="550.2" type="line"/>
      <point x="330.0" y="348.6" type="line"/>
      <point x="51.0" y="348.6" type="line"/>
      <point x="51.0" y="311.4" type="line"/>
      <point x="330.0" y="311.4" type="line"/>
    </contour>
  </outline>
</glyph>
<glyph name="comma" format="1">
  <advance width="312.0"/>
  <unicode hex="002C"/>
  <outline>
    <contour>
      <point x="90.0" y="-155.4" type="line"/>
      <point x="168.0" y="-123.0"/>
      <point x="228.0" y="-65.4"/>
      <point x="228.0" y="7.6" type="curve" smooth="yes"/>
      <point x="228.0" y="51.6"/>
      <point x="201.0" y="79.0"/>
      <point x="162.0" y="79.0" type="curve" smooth="yes"/>
      <point x="135.0" y="79.0"/>
      <point x="108.0" y="64.4"/>
      <point x="108.0" y="37.2" type="curve" smooth="yes"/>
      <point x="108.0" y="9.6"/>
      <point x="132.0" y="-4.6"/>
      <point x="162.0" y="-4.6" type="curve" smooth="yes"/>
      <point x="180.0" y="-4.6"/>
      <point x="198.0" y="-2.1"/>
      <point x="210.0" y="11.7" type="curve"/>
      <point x="159.0" y="58.6" type="line"/>
      <point x="180.0" y="-0.8" type="line"/>
      <point x="180.0" y="-58.0"/>
      <point x="135.0" y="-100.6"/>
      <point x="72.0" y="-124.8" type="curve"/>
    </contour>
  </outline>
</glyph>
<glyph name="hyphen" format="1">
  <advance width="441.0"/>
  <unicode hex="002D"/>
  <outline>
    <contour>
      <point x="60.0" y="230.0" type="line"/>
      <point x="384.0" y="230.0" type="line"/>
      <point x="384.0" y="269.0" type="line"/>
      <point x="60.0" y="269.0" type="line"/>
    </contour>
  </outline>
</glyph>
<glyph name="slash" format="1">
  <advance width="540.0"/>
  <unicode hex="002F"/>
  <outline>
    <contour>
      <point x="12.0" y="-160.0" type="line"/>
      <point x="57.0" y="-160.0" type="line"/>
      <point x="537.0" y="710.0" type="line"/>
      <point x="492.0" y="710.0" type="line"/>
    </contour>
  </outline>
</glyph>
<glyph name="six" format="1">
  <advance width="708.0"/>
  <unicode hex="0036"/>
  <outline>
    <contour>
      <point x="387.0" y="-12.0" type="curve" smooth="yes"/>
      <point x="525.0" y="-12.0"/>
      <point x="642.0" y="71.6"/>
      <point x="642.0" y="187.8" type="curve" smooth="yes"/>
      <point x="642.0" y="316.6"/>
      <point x="546.0" y="385.6"/>
      <point x="378.0" y="385.6" type="curve" smooth="yes"/>
      <point x="282.0" y="385.6"/>
      <point x="192.0" y="348.8"/>
      <point x="123.0" y="292.0" type="curve"/>
      <point x="123.0" y="245.2" type="line"/>
      <point x="207.0" y="319.8"/>
      <point x="303.0" y="348.4"/>
      <point x="375.0" y="348.4" type="curve" smooth="yes"/>
      <point x="531.0" y="348.4"/>
      <point x="594.0" y="280.3"/>
      <point x="594.0" y="187.8" type="curve" smooth="yes"/>
      <point x="594.0" y="96.5"/>
      <point x="507.0" y="26.0"/>
      <point x="390.0" y="26.0" type="curve" smooth="yes"/>
      <point x="207.0" y="26.0"/>
      <point x="129.0" y="133.6"/>
      <point x="129.0" y="289.8" type="curve" smooth="yes"/>
      <point x="129.0" y="530.0"/>
      <point x="267.0" y="612.4"/>
      <point x="426.0" y="612.4" type="curve" smooth="yes"/>
      <point x="489.0" y="612.4"/>
      <point x="547.5" y="594.0"/>
      <point x="591.0" y="559.4" type="curve"/>
      <point x="621.0" y="589.4" type="line"/>
      <point x="573.0" y="626.0"/>
      <point x="513.0" y="651.4"/>
      <point x="429.0" y="651.4" type="curve" smooth="yes"/>
      <point x="246.0" y="651.4"/>
      <point x="81.0" y="557.6"/>
      <point x="81.0" y="289.8" type="curve" smooth="yes"/>
      <point x="81.0" y="95.8"/>
      <point x="195.0" y="-12.0"/>
    </contour>
  </outline>
</glyph>
<glyph name="eight" format="1">
  <advance width="708.0"/>
  <unicode hex="0038"/>
  <outline>
    <contour>
      <point x="360.0" y="-12.0" type="curve" smooth="yes"/>
      <point x="531.0" y="-12.0"/>
      <point x="645.0" y="62.2"/>
      <point x="645.0" y="155.2" type="curve" smooth="yes"/>
      <point x="645.0" y="241.0"/>
      <point x="558.0" y="283.8"/>
      <point x="477.0" y="317.7" type="curve"/>
      <point x="477.0" y="321.7" type="line"/>
      <point x="531.0" y="351.6"/>
      <point x="615.0" y="413.8"/>
      <point x="615.0" y="484.4" type="curve" smooth="yes"/>
      <point x="615.0" y="579.8"/>
      <point x="522.0" y="651.4"/>
      <point x="360.0" y="651.4" type="curve" smooth="yes"/>
      <point x="225.0" y="651.4"/>
      <point x="117.0" y="587.0"/>
      <point x="117.0" y="494.8" type="curve" smooth="yes"/>
      <point x="117.0" y="427.0"/>
      <point x="186.0" y="379.2"/>
      <point x="255.0" y="348.4" type="curve"/>
      <point x="255.0" y="344.4" type="line"/>
      <point x="165.0" y="312.4"/>
      <point x="60.0" y="250.4"/>
      <point x="60.0" y="163.8" type="curve" smooth="yes"/>
      <point x="60.0" y="63.4"/>
      <point x="186.0" y="-12.0"/>
    </contour>
    <contour>
      <point x="432.0" y="334.8" type="curve"/>
      <point x="303.0" y="367.8"/>
      <point x="165.0" y="404.2"/>
      <point x="165.0" y="494.8" type="curve" smooth="yes"/>
      <point x="165.0" y="564.0"/>
      <point x="246.0" y="614.4"/>
      <point x="360.0" y="614.4" type="curve" smooth="yes"/>
      <point x="492.0" y="614.4"/>
      <point x="567.0" y="554.2"/>
      <point x="567.0" y="483.2" type="curve" smooth="yes"/>
      <point x="567.0" y="428.2"/>
      <point x="519.0" y="378.8"/>
    </contour>
    <contour>
      <point x="360.0" y="25.0" type="curve" smooth="yes"/>
      <point x="213.0" y="25.0"/>
      <point x="108.0" y="87.0"/>
      <point x="108.0" y="165.8" type="curve" smooth="yes"/>
      <point x="108.0" y="235.6"/>
      <point x="186.0" y="289.2"/>
      <point x="291.0" y="327.4" type="curve"/>
      <point x="444.0" y="288.2"/>
      <point x="597.0" y="254.0"/>
      <point x="597.0" y="155.8" type="curve" smooth="yes"/>
      <point x="597.0" y="82.6"/>
      <point x="504.0" y="25.0"/>
    </contour>
  </outline>
</glyph>
<glyph name="question" format="1">
  <advance width="591.0"/>
  <unicode hex="003F"/>
  <outline>
    <contour>
      <point x="246.0" y="179.2" type="curve"/>
      <point x="288.0" y="179.2" type="line"/>
      <point x="258.0" y="331.5"/>
      <point x="513.0" y="393.2"/>
      <point x="513.0" y="529.4" type="curve" smooth="yes"/>
      <point x="513.0" y="615.8"/>
      <point x="432.0" y="682.0"/>
      <point x="288.0" y="682.0" type="curve" smooth="yes"/>
      <point x="186.0" y="682.0"/>
      <point x="111.0" y="647.6"/>
      <point x="54.0" y="604.2" type="curve"/>
      <point x="84.0" y="579.4" type="line"/>
      <point x="135.0" y="619.6"/>
      <point x="210.0" y="643.0"/>
      <point x="285.0" y="643.0" type="curve" smooth="yes"/>
      <point x="411.0" y="643.0"/>
      <point x="465.0" y="587.6"/>
      <point x="465.0" y="526.4" type="curve" smooth="yes"/>
      <point x="465.0" y="403.0"/>
      <point x="213.0" y="345.2"/>
    </contour>
    <contour>
      <point x="273.0" y="-12.0" type="curve" smooth="yes"/>
      <point x="300.0" y="-12.0"/>
      <point x="327.0" y="5.2"/>
      <point x="327.0" y="32.6" type="curve" smooth="yes"/>
      <point x="327.0" y="61.8"/>
      <point x="300.0" y="79.0"/>
      <point x="273.0" y="79.0" type="curve" smooth="yes"/>
      <point x="246.0" y="79.0"/>
      <point x="219.0" y="61.8"/>
      <point x="219.0" y="32.6" type="curve" smooth="yes"/>
      <point x="219.0" y="5.2"/>
      <point x="246.0" y="-12.0"/>
    </contour>
  </outline>
</glyph>
<glyph name="at" format="1">
  <advance width="1203.0"/>
  <unicode hex="0040"/>
  <outline>
    <contour>
      <point x="573.0" y="-145.6" type="curve" smooth="yes"/>
      <point x="675.0" y="-145.6"/>
      <point x="768.0" y="-128.0"/>
      <point x="852.0" y="-92.4" type="curve"/>
      <point x="831.0" y="-61.6" type="line"/>
      <point x="759.0" y="-90.6"/>
      <point x="678.0" y="-110.2"/>
      <point x="576.0" y="-110.2" type="curve" smooth="yes"/>
      <point x="303.0" y="-110.2"/>
      <point x="123.0" y="10.2"/>
      <point x="123.0" y="204.6" type="curve" smooth="yes"/>
      <point x="123.0" y="442.8"/>
      <point x="384.0" y="597.6"/>
      <point x="660.0" y="597.6" type="curve" smooth="yes"/>
      <point x="915.0" y="597.6"/>
      <point x="1080.0" y="485.4"/>
      <point x="1080.0" y="313.4" type="curve" smooth="yes"/>
      <point x="1080.0" y="171.8"/>
      <point x="957.0" y="91.2"/>
      <point x="861.0" y="91.2" type="curve" smooth="yes"/>
      <point x="765.0" y="91.2"/>
      <point x="732.0" y="135.0"/>
      <point x="768.0" y="226.4" type="curve" smooth="yes"/>
      <point x="819.0" y="414.8" type="line"/>
      <point x="780.0" y="414.8" type="line"/>
      <point x="768.0" y="374.6" type="line"/>
      <point x="765.0" y="374.6" type="line"/>
      <point x="735.0" y="407.0"/>
      <point x="693.0" y="422.8"/>
      <point x="639.0" y="422.8" type="curve" smooth="yes"/>
      <point x="462.0" y="422.8"/>
      <point x="363.0" y="295.4"/>
      <point x="363.0" y="198.0" type="curve" smooth="yes"/>
      <point x="363.0" y="107.8"/>
      <point x="441.0" y="62.0"/>
      <point x="531.0" y="62.0" type="curve" smooth="yes"/>
      <point x="600.0" y="62.0"/>
      <point x="660.0" y="93.4"/>
      <point x="714.0" y="131.6" type="curve"/>
      <point x="717.0" y="131.6" type="line"/>
      <point x="723.0" y="80.0"/>
      <point x="780.0" y="55.6"/>
      <point x="858.0" y="55.6" type="curve" smooth="yes"/>
      <point x="978.0" y="55.6"/>
      <point x="1125.0" y="145.8"/>
      <point x="1125.0" y="315.6" type="curve" smooth="yes"/>
      <point x="1125.0" y="506.2"/>
      <point x="948.0" y="633.0"/>
      <point x="663.0" y="633.0" type="curve" smooth="yes"/>
      <point x="354.0" y="633.0"/>
      <point x="78.0" y="463.0"/>
      <point x="78.0" y="202.4" type="curve" smooth="yes"/>
      <point x="78.0" y="-18.4"/>
      <point x="285.0" y="-145.6"/>
    </contour>
    <contour>
      <point x="534.0" y="97.8" type="curve" smooth="yes"/>
      <point x="465.0" y="97.8"/>
      <point x="408.0" y="125.1"/>
      <point x="408.0" y="200.8" type="curve" smooth="yes"/>
      <point x="408.0" y="285.4"/>
      <point x="495.0" y="386.8"/>
      <point x="636.0" y="386.8" type="curve" smooth="yes"/>
      <point x="684.0" y="386.8"/>
      <point x="714.0" y="375.0"/>
      <point x="753.0" y="337.6" type="curve"/>
      <point x="705.0" y="164.8" type="line"/>
      <point x="642.0" y="118.6"/>
      <point x="585.0" y="97.8"/>
    </contour>
  </outline>
</glyph>
<glyph name="D" format="1">
  <advance width="900.0"/>
  <unicode hex="0044"/>
  <outline>
    <contour>
      <point x="150.0" y="0.0" type="line"/>
      <point x="372.0" y="0.0" type="line" smooth="yes"/>
      <point x="678.0" y="0.0"/>
      <point x="816.0" y="132.2"/>
      <point x="816.0" y="331.6" type="curve" smooth="yes"/>
      <point x="816.0" y="531.0"/>
      <point x="678.0" y="659.0"/>
      <point x="372.0" y="659.0" type="curve" smooth="yes"/>
      <point x="150.0" y="659.0" type="line"/>
    </contour>
    <contour>
      <point x="198.0" y="39.0" type="line"/>
      <point x="198.0" y="620.0" type="line"/>
      <point x="366.0" y="620.0" type="line" smooth="yes"/>
      <point x="648.0" y="620.0"/>
      <point x="765.0" y="503.4"/>
      <point x="765.0" y="331.6" type="curve" smooth="yes"/>
      <point x="765.0" y="159.8"/>
      <point x="648.0" y="39.0"/>
      <point x="366.0" y="39.0" type="curve" smooth="yes"/>
    </contour>
    <contour>
      <point x="450.0" y="681.0" type="move" name="aboveUC"/>
    </contour>
    <contour>
      <point x="447.0" y="-22.0" type="move" name="belowLC"/>
    </contour>
  </outline>
</glyph>
<glyph name="G" format="1">
  <advance width="900.0"/>
  <unicode hex="0047"/>
  <outline>
    <contour>
      <point x="501.0" y="-12.0" type="curve" smooth="yes"/>
      <point x="630.0" y="-12.0"/>
      <point x="729.0" y="18.6"/>
      <point x="789.0" y="62.6" type="curve"/>
      <point x="789.0" y="324.0" type="line"/>
      <point x="495.0" y="324.0" type="line"/>
      <point x="495.0" y="284.8" type="line"/>
      <point x="741.0" y="284.8" type="line"/>
      <point x="741.0" y="79.6" type="line"/>
      <point x="690.0" y="48.2"/>
      <point x="600.0" y="29.8"/>
      <point x="504.0" y="29.8" type="curve" smooth="yes"/>
      <point x="273.0" y="29.8"/>
      <point x="135.0" y="148.2"/>
      <point x="135.0" y="331.4" type="curve" smooth="yes"/>
      <point x="135.0" y="514.2"/>
      <point x="279.0" y="629.2"/>
      <point x="516.0" y="629.2" type="curve" smooth="yes"/>
      <point x="627.0" y="629.2"/>
      <point x="699.0" y="598.4"/>
      <point x="750.0" y="561.4" type="curve"/>
      <point x="780.0" y="592.2" type="line"/>
      <point x="729.0" y="629.2"/>
      <point x="648.0" y="671.0"/>
      <point x="516.0" y="671.0" type="curve" smooth="yes"/>
      <point x="255.0" y="671.0"/>
      <point x="84.0" y="539.8"/>
      <point x="84.0" y="330.8" type="curve" smooth="yes"/>
      <point x="84.0" y="121.4"/>
      <point x="249.0" y="-12.0"/>
    </contour>
    <contour>
      <point x="513.0" y="681.0" type="move" name="aboveUC"/>
    </contour>
    <contour>
      <point x="504.0" y="-22.0" type="move" name="belowLC"/>
    </contour>
  </outline>
</glyph>
<glyph name="K" format="1">
  <advance width="825.0"/>
  <unicode hex="004B"/>
  <outline>
    <contour>
      <point x="150.0" y="0.0" type="line"/>
      <point x="198.0" y="0.0" type="line"/>
      <point x="198.0" y="226.8" type="line"/>
      <point x="411.0" y="379.6" type="line"/>
      <point x="750.0" y="0.0" type="line"/>
      <point x="807.0" y="0.0" type="line"/>
      <point x="447.0" y="414.8" type="line"/>
      <point x="765.0" y="659.0" type="line"/>
      <point x="705.0" y="659.0" type="line"/>
      <point x="201.0" y="292.8" type="line"/>
      <point x="198.0" y="292.8" type="line"/>
      <point x="198.0" y="659.0" type="line"/>
      <point x="150.0" y="659.0" type="line"/>
    </contour>
    <contour>
      <point x="456.0" y="681.0" type="move" name="aboveUC"/>
    </contour>
    <contour>
      <point x="486.0" y="-22.0" type="move" name="belowLC"/>
    </contour>
  </outline>
</glyph>
<glyph name="L" format="1">
  <advance width="690.0"/>
  <unicode hex="004C"/>
  <outline>
    <contour>
      <point x="150.0" y="0.0" type="line"/>
      <point x="663.0" y="0.0" type="line"/>
      <point x="663.0" y="39.6" type="line"/>
      <point x="198.0" y="39.6" type="line"/>
      <point x="198.0" y="659.0" type="line"/>
      <point x="150.0" y="659.0" type="line"/>
    </contour>
    <contour>
      <point x="174.0" y="681.0" type="move" name="aboveUC"/>
    </contour>
    <contour>
      <point x="432.0" y="-22.0" type="move" name="belowLC"/>
    </contour>
  </outline>
</glyph>
<glyph name="M" format="1">
  <advance width="1047.0"/>
  <unicode hex="004D"/>
  <outline>
    <contour>
      <point x="150.0" y="0.0" type="line"/>
      <point x="195.0" y="0.0" type="line"/>
      <point x="195.0" y="433.2" type="line" smooth="yes"/>
      <point x="195.0" y="486.6"/>
      <point x="192.0" y="556.1"/>
      <point x="189.0" y="611.2" type="curve"/>
      <point x="195.0" y="611.2" type="line"/>
      <point x="273.0" y="464.2" type="line"/>
      <point x="498.0" y="71.9" type="line"/>
      <point x="549.0" y="71.9" type="line"/>
      <point x="772.5" y="464.2" type="line"/>
      <point x="849.0" y="611.2" type="line"/>
      <point x="855.0" y="611.2" type="line"/>
      <point x="852.0" y="556.1"/>
      <point x="849.0" y="486.6"/>
      <point x="849.0" y="433.2" type="curve" smooth="yes"/>
      <point x="849.0" y="0.0" type="line"/>
      <point x="897.0" y="0.0" type="line"/>
      <point x="897.0" y="659.0" type="line"/>
      <point x="819.0" y="659.0" type="line"/>
      <point x="606.0" y="272.4" type="line"/>
      <point x="579.0" y="223.8"/>
      <point x="555.0" y="174.8"/>
      <point x="528.0" y="126.0" type="curve"/>
      <point x="522.0" y="126.0" type="line"/>
      <point x="495.0" y="174.8"/>
      <point x="468.0" y="223.8"/>
      <point x="441.0" y="272.4" type="curve"/>
      <point x="228.0" y="659.0" type="line"/>
      <point x="150.0" y="659.0" type="line"/>
    </contour>
    <contour>
      <point x="522.0" y="681.0" type="move" name="aboveUC"/>
    </contour>
    <contour>
      <point x="525.0" y="-22.0" type="move" name="belowLC"/>
    </contour>
  </outline>
</glyph>
<glyph name="N" format="1">
  <advance width="948.0"/>
  <unicode hex="004E"/>
  <outline>
    <contour>
      <point x="150.0" y="0.0" type="line"/>
      <point x="195.0" y="0.0" type="line"/>
      <point x="195.0" y="409.4" type="line" smooth="yes"/>
      <point x="195.0" y="473.2"/>
      <point x="192.0" y="533.0"/>
      <point x="189.0" y="596.2" type="curve"/>
      <point x="195.0" y="596.2" type="line"/>
      <point x="309.0" y="464.7" type="line"/>
      <point x="747.0" y="0.0" type="line"/>
      <point x="798.0" y="0.0" type="line"/>
      <point x="798.0" y="659.0" type="line"/>
      <point x="753.0" y="659.0" type="line"/>
      <point x="753.0" y="255.0" type="line" smooth="yes"/>
      <point x="753.0" y="191.2"/>
      <point x="756.0" y="127.4"/>
      <point x="759.0" y="62.8" type="curve"/>
      <point x="753.0" y="62.8" type="line"/>
      <point x="639.0" y="194.4" type="line"/>
      <point x="201.0" y="659.0" type="line"/>
      <point x="150.0" y="659.0" type="line"/>
    </contour>
    <contour>
      <point x="483.0" y="681.0" type="move" name="aboveUC"/>
    </contour>
    <contour>
      <point x="471.0" y="-22.0" type="move" name="belowLC"/>
    </contour>
  </outline>
</glyph>
<glyph name="R" format="1">
  <advance width="801.0"/>
  <unicode hex="0052"/>
  <outline>
    <contour>
      <point x="150.0" y="0.0" type="line"/>
      <point x="198.0" y="0.0" type="line"/>
      <point x="198.0" y="302.6" type="line"/>
      <point x="423.0" y="302.6" type="line" smooth="yes"/>
      <point x="618.0" y="302.6"/>
      <point x="741.0" y="364.9"/>
      <point x="741.0" y="485.0" type="curve" smooth="yes"/>
      <point x="741.0" y="611.0"/>
      <point x="618.0" y="659.0"/>
      <point x="423.0" y="659.0" type="curve" smooth="yes"/>
      <point x="150.0" y="659.0" type="line"/>
    </contour>
    <contour>
      <point x="198.0" y="341.4" type="line"/>
      <point x="198.0" y="620.2" type="line"/>
      <point x="405.0" y="620.2" type="line" smooth="yes"/>
      <point x="588.0" y="620.2"/>
      <point x="690.0" y="584.2"/>
      <point x="690.0" y="485.0" type="curve" smooth="yes"/>
      <point x="690.0" y="387.6"/>
      <point x="588.0" y="341.4"/>
      <point x="405.0" y="341.4" type="curve" smooth="yes"/>
    </contour>
    <contour>
      <point x="699.0" y="0.0" type="line"/>
      <point x="756.0" y="0.0" type="line"/>
      <point x="465.0" y="329.3" type="line"/>
      <point x="411.0" y="316.1" type="line"/>
    </contour>
    <contour>
      <point x="423.0" y="681.0" type="move" name="aboveUC"/>
    </contour>
    <contour>
      <point x="444.0" y="-22.0" type="move" name="belowLC"/>
    </contour>
  </outline>
</glyph>
<glyph name="V" format="1">
  <advance width="723.0"/>
  <unicode hex="0056"/>
  <outline>
    <contour>
      <point x="339.0" y="0.0" type="line"/>
      <point x="387.0" y="0.0" type="line"/>
      <point x="714.0" y="659.0" type="line"/>
      <point x="666.0" y="659.0" type="line"/>
      <point x="474.0" y="274.2" type="line" smooth="yes"/>
      <point x="435.0" y="193.5"/>
      <point x="408.0" y="132.8"/>
      <point x="366.0" y="52.9" type="curve"/>
      <point x="360.0" y="52.9" type="line"/>
      <point x="318.0" y="132.8"/>
      <point x="291.0" y="193.5"/>
      <point x="252.0" y="274.2" type="curve" smooth="yes"/>
      <point x="60.0" y="659.0" type="line"/>
      <point x="9.0" y="659.0" type="line"/>
    </contour>
    <contour>
      <point x="360.0" y="681.0" type="move" name="aboveUC"/>
    </contour>
    <contour>
      <point x="366.0" y="-22.0" type="move" name="belowLC"/>
    </contour>
  </outline>
</glyph>
<glyph name="X" format="1">
  <advance width="705.0"/>
  <unicode hex="0058"/>
  <outline>
    <contour>
      <point x="27.0" y="0.0" type="line"/>
      <point x="75.0" y="0.0" type="line"/>
      <point x="258.0" y="202.4" type="line" smooth="yes"/>
      <point x="285.0" y="234.6"/>
      <point x="312.0" y="266.8"/>
      <point x="345.0" y="306.8" type="curve"/>
      <point x="351.0" y="306.8" type="line"/>
      <point x="387.0" y="266.8"/>
      <point x="417.0" y="234.6"/>
      <point x="444.0" y="202.4" type="curve" smooth="yes"/>
      <point x="627.0" y="0.0" type="line"/>
      <point x="678.0" y="0.0" type="line"/>
      <point x="378.0" y="338.6" type="line"/>
      <point x="657.0" y="659.0" type="line"/>
      <point x="609.0" y="659.0" type="line"/>
      <point x="435.0" y="464.8" type="line" smooth="yes"/>
      <point x="408.0" y="434.8"/>
      <point x="390.0" y="411.4"/>
      <point x="360.0" y="374.8" type="curve"/>
      <point x="354.0" y="374.8" type="line"/>
      <point x="321.0" y="411.4"/>
      <point x="300.0" y="434.8"/>
      <point x="273.0" y="464.8" type="curve" smooth="yes"/>
      <point x="99.0" y="659.0" type="line"/>
      <point x="48.0" y="659.0" type="line"/>
      <point x="327.0" y="341.2" type="line"/>
    </contour>
    <contour>
      <point x="354.0" y="681.0" type="move" name="aboveUC"/>
    </contour>
    <contour>
      <point x="351.0" y="-22.0" type="move" name="belowLC"/>
    </contour>
  </outline>
</glyph>
<glyph name="bracketleft" format="1">
  <advance width="405.0"/>
  <unicode hex="005B"/>
  <outline>
    <contour>
      <point x="150.0" y="-152.0" type="line"/>
      <point x="378.0" y="-152.0" type="line"/>
      <point x="378.0" y="-123.2" type="line"/>
      <point x="186.0" y="-123.2" type="line"/>
      <point x="186.0" y="679.2" type="line"/>
      <point x="378.0" y="679.2" type="line"/>
      <point x="378.0" y="708.0" type="line"/>
      <point x="150.0" y="708.0" type="line"/>
    </contour>
  </outline>
</glyph>
<glyph name="backslash" format="1">
  <advance width="540.0"/>
  <unicode hex="005C"/>
  <outline>
    <contour>
      <point x="483.0" y="-160.0" type="line"/>
      <point x="528.0" y="-160.0" type="line"/>
      <point x="48.0" y="710.0" type="line"/>
      <point x="3.0" y="710.0" type="line"/>
    </contour>
  </outline>
</glyph>
<glyph name="bracketright" format="1">
  <advance width="405.0"/>
  <unicode hex="005D"/>
  <outline>
    <contour>
      <point x="27.0" y="-152.0" type="line"/>
      <point x="255.0" y="-152.0" type="line"/>
      <point x="255.0" y="708.0" type="line"/>
      <point x="27.0" y="708.0" type="line"/>
      <point x="27.0" y="679.2" type="line"/>
      <point x="219.0" y="679.2" type="line"/>
      <point x="219.0" y="-123.2" type="line"/>
      <point x="27.0" y="-123.2" type="line"/>
    </contour>
  </outline>
</glyph>
<glyph name="underscore" format="1">
  <advance width="750.0"/>
  <unicode hex="005F"/>
  <outline>
    <contour>
      <point x="18.0" y="-117.2" type="line"/>
      <point x="732.0" y="-117.2" type="line"/>
      <point x="732.0" y="-79.0" type="line"/>
      <point x="18.0" y="-79.0" type="line"/>
    </contour>
  </outline>
</glyph>
<glyph name="a" format="1">
  <advance width="729.0"/>
  <unicode hex="0061"/>
  <outline>
    <contour>
      <point x="297.0" y="-12.0" type="curve" smooth="yes"/>
      <point x="393.0" y="-12.0"/>
      <point x="483.0" y="22.8"/>
      <point x="558.0" y="62.4" type="curve"/>
      <point x="561.0" y="62.4" type="line"/>
      <point x="567.0" y="0.0" type="line"/>
      <point x="606.0" y="0.0" type="line"/>
      <point x="606.0" y="306.8" type="line" smooth="yes"/>
      <point x="606.0" y="409.6"/>
      <point x="555.0" y="492.2"/>
      <point x="387.0" y="492.2" type="curve" smooth="yes"/>
      <point x="270.0" y="492.2"/>
      <point x="171.0" y="453.8"/>
      <point x="126.0" y="429.8" type="curve"/>
      <point x="150.0" y="397.0" type="line"/>
      <point x="195.0" y="421.4"/>
      <point x="282.0" y="453.4"/>
      <point x="384.0" y="453.4" type="curve" smooth="yes"/>
      <point x="534.0" y="453.4"/>
      <point x="564.0" y="374.4"/>
      <point x="561.0" y="300.6" type="curve"/>
      <point x="237.0" y="277.0"/>
      <point x="90.0" y="226.2"/>
      <point x="90.0" y="119.5" type="curve" smooth="yes"/>
      <point x="90.0" y="29.4"/>
      <point x="186.0" y="-12.0"/>
    </contour>
    <contour>
      <point x="300.0" y="26.4" type="curve" smooth="yes"/>
      <point x="213.0" y="26.4"/>
      <point x="138.0" y="52.9"/>
      <point x="138.0" y="121.8" type="curve" smooth="yes"/>
      <point x="138.0" y="198.4"/>
      <point x="246.0" y="244.2"/>
      <point x="561.0" y="267.0" type="curve"/>
      <point x="561.0" y="103.6" type="line"/>
      <point x="465.0" y="53.0"/>
      <point x="387.0" y="26.4"/>
    </contour>
    <contour>
      <point x="606.0" y="0.0" type="move" name="ogonekLC"/>
    </contour>
    <contour>
      <point x="390.0" y="504.0" type="move" name="aboveLC"/>
    </contour>
    <contour>
      <point x="363.0" y="-22.0" type="move" name="belowLC"/>
    </contour>
  </outline>
</glyph>
<glyph name="b" format="1">
  <advance width="807.0"/>
  <unicode hex="0062"/>
  <outline>
    <contour>
      <point x="411.0" y="-12.0" type="curve" smooth="yes"/>
      <point x="582.0" y="-12.0"/>
      <point x="729.0" y="84.2"/>
      <point x="729.0" y="247.3" type="curve" smooth="yes"/>
      <point x="729.0" y="395.8"/>
      <point x="636.0" y="492.2"/>
      <point x="441.0" y="492.2" type="curve" smooth="yes"/>
      <point x="351.0" y="492.2"/>
      <point x="261.0" y="458.0"/>
      <point x="186.0" y="417.0" type="curve"/>
      <point x="189.0" y="510.6" type="line"/>
      <point x="189.0" y="719.4" type="line"/>
      <point x="144.0" y="719.4" type="line"/>
      <point x="144.0" y="0.0" type="line"/>
      <point x="183.0" y="0.0" type="line"/>
      <point x="189.0" y="48.6" type="line"/>
      <point x="192.0" y="48.6" type="line"/>
      <point x="261.0" y="11.8"/>
      <point x="342.0" y="-12.0"/>
    </contour>
    <contour>
      <point x="414.0" y="27.2" type="curve" smooth="yes"/>
      <point x="357.0" y="27.2"/>
      <point x="273.0" y="44.0"/>
      <point x="189.0" y="89.0" type="curve"/>
      <point x="189.0" y="373.8" type="line"/>
      <point x="279.0" y="425.0"/>
      <point x="363.0" y="453.0"/>
      <point x="438.0" y="453.0" type="curve" smooth="yes"/>
      <point x="615.0" y="453.0"/>
      <point x="681.0" y="365.0"/>
      <point x="681.0" y="247.0" type="curve" smooth="yes"/>
      <point x="681.0" y="116.8"/>
      <point x="570.0" y="27.2"/>
    </contour>
    <contour>
      <point x="171.0" y="730.0" type="move" name="aboveLC"/>
    </contour>
    <contour>
      <point x="414.0" y="-22.0" type="move" name="belowLC"/>
    </contour>
  </outline>
</glyph>
<glyph name="c" format="1">
  <advance width="669.0"/>
  <unicode hex="0063"/>
  <outline>
    <contour>
      <point x="402.0" y="-12.0" type="curve" smooth="yes"/>
      <point x="495.0" y="-12.0"/>
      <point x="570.0" y="14.6"/>
      <point x="630.0" y="51.4" type="curve"/>
      <point x="603.0" y="82.4" type="line"/>
      <point x="552.0" y="51.8"/>
      <point x="483.0" y="27.0"/>
      <point x="402.0" y="27.0" type="curve" smooth="yes"/>
      <point x="237.0" y="27.0"/>
      <point x="129.0" y="112.8"/>
      <point x="129.0" y="239.2" type="curve" smooth="yes"/>
      <point x="129.0" y="365.6"/>
      <point x="249.0" y="453.2"/>
      <point x="402.0" y="453.2" type="curve" smooth="yes"/>
      <point x="477.0" y="453.2"/>
      <point x="534.0" y="431.0"/>
      <point x="582.0" y="402.2" type="curve"/>
      <point x="612.0" y="433.0" type="line"/>
      <point x="564.0" y="463.2"/>
      <point x="501.0" y="492.2"/>
      <point x="402.0" y="492.2" type="curve" smooth="yes"/>
      <point x="231.0" y="492.2"/>
      <point x="81.0" y="399.8"/>
      <point x="81.0" y="239.2" type="curve" smooth="yes"/>
      <point x="81.0" y="80.4"/>
      <point x="219.0" y="-12.0"/>
    </contour>
    <contour>
      <point x="402.0" y="504.0" type="move" name="aboveLC"/>
    </contour>
    <contour>
      <point x="399.0" y="0.0" type="move" name="baseLC"/>
    </contour>
    <contour>
      <point x="399.0" y="-22.0" type="move" name="belowLC"/>
    </contour>
  </outline>
</glyph>
<glyph name="g" format="1">
  <advance width="720.0"/>
  <unicode hex="0067"/>
  <outline>
    <contour>
      <point x="375.0" y="-231.2" type="curve" smooth="yes"/>
      <point x="576.0" y="-231.2"/>
      <point x="705.0" y="-151.8"/>
      <point x="705.0" y="-69.0" type="curve" smooth="yes"/>
      <point x="705.0" y="6.8"/>
      <point x="633.0" y="41.2"/>
      <point x="474.0" y="41.2" type="curve" smooth="yes"/>
      <point x="315.0" y="41.2" type="line" smooth="yes"/>
      <point x="204.0" y="41.2"/>
      <point x="174.0" y="69.0"/>
      <point x="174.0" y="103.6" type="curve" smooth="yes"/>
      <point x="174.0" y="135.6"/>
      <point x="204.0" y="156.0"/>
      <point x="237.0" y="173.1" type="curve"/>
      <point x="270.0" y="160.0"/>
      <point x="318.0" y="152.6"/>
      <point x="360.0" y="152.6" type="curve" smooth="yes"/>
      <point x="498.0" y="152.6"/>
      <point x="606.0" y="224.0"/>
      <point x="606.0" y="322.2" type="curve" smooth="yes"/>
      <point x="606.0" y="372.8"/>
      <point x="570.0" y="416.2"/>
      <point x="519.0" y="442.6" type="curve"/>
      <point x="693.0" y="442.6" type="line"/>
      <point x="693.0" y="480.2" type="line"/>
      <point x="453.0" y="480.2" type="line"/>
      <point x="432.0" y="486.4"/>
      <point x="399.0" y="492.2"/>
      <point x="360.0" y="492.2" type="curve" smooth="yes"/>
      <point x="222.0" y="492.2"/>
      <point x="114.0" y="421.6"/>
      <point x="114.0" y="322.8" type="curve" smooth="yes"/>
      <point x="114.0" y="264.8"/>
      <point x="159.0" y="217.0"/>
      <point x="204.0" y="191.2" type="curve"/>
      <point x="204.0" y="187.2" type="line"/>
      <point x="174.0" y="172.2"/>
      <point x="126.0" y="141.6"/>
      <point x="126.0" y="98.6" type="curve" smooth="yes"/>
      <point x="126.0" y="62.0"/>
      <point x="153.0" y="36.0"/>
      <point x="189.0" y="21.6" type="curve"/>
      <point x="189.0" y="17.6" type="line"/>
      <point x="123.0" y="-13.6"/>
      <point x="81.0" y="-56.3"/>
      <point x="81.0" y="-98.2" type="curve" smooth="yes"/>
      <point x="81.0" y="-179.2"/>
      <point x="192.0" y="-231.2"/>
    </contour>
    <contour>
      <point x="360.0" y="188.0" type="curve" smooth="yes"/>
      <point x="255.0" y="188.0"/>
      <point x="162.0" y="242.4"/>
      <point x="162.0" y="322.8" type="curve" smooth="yes"/>
      <point x="162.0" y="404.8"/>
      <point x="252.0" y="455.6"/>
      <point x="360.0" y="455.6" type="curve" smooth="yes"/>
      <point x="468.0" y="455.6"/>
      <point x="558.0" y="403.9"/>
      <point x="558.0" y="322.8" type="curve" smooth="yes"/>
      <point x="558.0" y="242.4"/>
      <point x="465.0" y="188.0"/>
    </contour>
    <contour>
      <point x="378.0" y="-195.4" type="curve" smooth="yes"/>
      <point x="219.0" y="-195.4"/>
      <point x="129.0" y="-154.4"/>
      <point x="129.0" y="-93.6" type="curve" smooth="yes"/>
      <point x="129.0" y="-59.8"/>
      <point x="159.0" y="-22.8"/>
      <point x="231.0" y="7.2" type="curve"/>
      <point x="270.0" y="1.4"/>
      <point x="309.0" y="-0.6"/>
      <point x="318.0" y="-0.6" type="curve" smooth="yes"/>
      <point x="483.0" y="-0.6" type="line" smooth="yes"/>
      <point x="597.0" y="-0.6"/>
      <point x="657.0" y="-20.8"/>
      <point x="657.0" y="-73.8" type="curve" smooth="yes"/>
      <point x="657.0" y="-134.2"/>
      <point x="549.0" y="-195.4"/>
    </contour>
    <contour>
      <point x="372.0" y="504.0" type="move" name="aboveLC"/>
    </contour>
    <contour>
      <point x="375.0" y="-229.9" type="move" name="belowLC"/>
    </contour>
  </outline>
</glyph>
<glyph name="i" format="1">
  <advance width="333.0"/>
  <unicode hex="0069"/>
  <outline>
    <contour>
      <point x="144.0" y="0.0" type="line"/>
      <point x="189.0" y="0.0" type="line"/>
      <point x="189.0" y="480.2" type="line"/>
      <point x="144.0" y="480.2" type="line"/>
    </contour>
    <contour>
      <point x="168.0" y="596.2" type="curve" smooth="yes"/>
      <point x="195.0" y="596.2"/>
      <point x="219.0" y="612.4"/>
      <point x="219.0" y="635.4" type="curve" smooth="yes"/>
      <point x="219.0" y="660.2"/>
      <point x="195.0" y="674.6"/>
      <point x="168.0" y="674.6" type="curve" smooth="yes"/>
      <point x="141.0" y="674.6"/>
      <point x="117.0" y="660.2"/>
      <point x="117.0" y="635.4" type="curve" smooth="yes"/>
      <point x="117.0" y="612.4"/>
      <point x="141.0" y="596.2"/>
    </contour>
    <contour>
      <point x="195.0" y="0.0" type="move" name="ogonekLC"/>
    </contour>
    <contour>
      <point x="165.0" y="678.1" type="move" name="aboveLC"/>
    </contour>
    <contour>
      <point x="165.0" y="-22.0" type="move" name="belowLC"/>
    </contour>
  </outline>
</glyph>
<glyph name="j" format="1">
  <advance width="333.0"/>
  <unicode hex="006A"/>
  <outline>
    <contour>
      <point x="42.0" y="-229.4" type="curve" smooth="yes"/>
      <point x="141.0" y="-229.4"/>
      <point x="189.0" y="-183.2"/>
      <point x="189.0" y="-89.2" type="curve" smooth="yes"/>
      <point x="189.0" y="480.2" type="line"/>
      <point x="144.0" y="480.2" type="line"/>
      <point x="144.0" y="-86.2" type="line" smooth="yes"/>
      <point x="144.0" y="-147.4"/>
      <point x="129.0" y="-190.8"/>
      <point x="45.0" y="-190.8" type="curve" smooth="yes"/>
      <point x="15.0" y="-190.8"/>
      <point x="-15.0" y="-185.2"/>
      <point x="-33.0" y="-181.2" type="curve"/>
      <point x="-45.0" y="-217.2" type="line"/>
      <point x="-24.0" y="-223.4"/>
      <point x="12.0" y="-229.4"/>
    </contour>
    <contour>
      <point x="168.0" y="596.2" type="curve" smooth="yes"/>
      <point x="195.0" y="596.2"/>
      <point x="219.0" y="612.4"/>
      <point x="219.0" y="635.4" type="curve" smooth="yes"/>
      <point x="219.0" y="660.2"/>
      <point x="195.0" y="674.6"/>
      <point x="168.0" y="674.6" type="curve" smooth="yes"/>
      <point x="141.0" y="674.6"/>
      <point x="117.0" y="660.2"/>
      <point x="117.0" y="635.4" type="curve" smooth="yes"/>
      <point x="117.0" y="612.4"/>
      <point x="141.0" y="596.2"/>
    </contour>
    <contour>
      <point x="168.0" y="678.1" type="move" name="aboveLC"/>
    </contour>
    <contour>
      <point x="66.0" y="-228.9" type="move" name="belowLC"/>
    </contour>
  </outline>
</glyph>
<glyph name="l" format="1">
  <advance width="345.0"/>
  <unicode hex="006C"/>
  <outline>
    <contour>
      <point x="216.0" y="-12.0" type="curve" smooth="yes"/>
      <point x="234.0" y="-12.0"/>
      <point x="243.0" y="-9.6"/>
      <point x="255.0" y="-7.0" type="curve"/>
      <point x="246.0" y="29.0" type="line"/>
      <point x="231.0" y="27.0"/>
      <point x="225.0" y="27.0"/>
      <point x="219.0" y="27.0" type="curve" smooth="yes"/>
      <point x="201.0" y="27.0"/>
      <point x="189.0" y="37.0"/>
      <point x="189.0" y="58.4" type="curve" smooth="yes"/>
      <point x="189.0" y="719.4" type="line"/>
      <point x="144.0" y="719.4" type="line"/>
      <point x="144.0" y="64.4" type="line" smooth="yes"/>
      <point x="144.0" y="11.8"/>
      <point x="171.0" y="-12.0"/>
    </contour>
    <contour>
      <point x="165.0" y="730.0" type="move" name="aboveLC"/>
    </contour>
    <contour>
      <point x="201.0" y="-22.0" type="move" name="belowLC"/>
    </contour>
  </outline>
</glyph>
<glyph name="o" format="1">
  <advance width="798.0"/>
  <unicode hex="006F"/>
  <outline>
    <contour>
      <point x="399.0" y="-12.0" type="curve" smooth="yes"/>
      <point x="570.0" y="-12.0"/>
      <point x="717.0" y="80.4"/>
      <point x="717.0" y="239.2" type="curve" smooth="yes"/>
      <point x="717.0" y="399.8"/>
      <point x="570.0" y="492.2"/>
      <point x="399.0" y="492.2" type="curve" smooth="yes"/>
      <point x="228.0" y="492.2"/>
      <point x="81.0" y="399.8"/>
      <point x="81.0" y="239.2" type="curve" smooth="yes"/>
      <point x="81.0" y="80.4"/>
      <point x="228.0" y="-12.0"/>
    </contour>
    <contour>
      <point x="399.0" y="27.0" type="curve" smooth="yes"/>
      <point x="246.0" y="27.0"/>
      <point x="129.0" y="112.8"/>
      <point x="129.0" y="239.2" type="curve" smooth="yes"/>
      <point x="129.0" y="365.6"/>
      <point x="246.0" y="453.2"/>
      <point x="399.0" y="453.2" type="curve" smooth="yes"/>
      <point x="552.0" y="453.2"/>
      <point x="669.0" y="365.6"/>
      <point x="669.0" y="239.2" type="curve" smooth="yes"/>
      <point x="669.0" y="112.8"/>
      <point x="552.0" y="27.0"/>
    </contour>
    <contour>
      <point x="537.0" y="480.2" type="move" name="hornLC"/>
    </contour>
    <contour>
      <point x="399.0" y="504.0" type="move" name="aboveLC"/>
    </contour>
    <contour>
      <point x="468.0" y="0.0" type="move" name="ogonekLC"/>
    </contour>
    <contour>
      <point x="399.0" y="-22.0" type="move" name="belowLC"/>
    </contour>
  </outline>
</glyph>
<glyph name="p" format="1">
  <advance width="810.0"/>
  <unicode hex="0070"/>
  <outline>
    <contour>
      <point x="144.0" y="-217.4" type="line"/>
      <point x="189.0" y="-217.4" type="line"/>
      <point x="189.0" y="-41.6" type="line"/>
      <point x="189.0" y="47.0" type="line"/>
      <point x="267.0" y="9.6"/>
      <point x="342.0" y="-12.0"/>
      <point x="411.0" y="-12.0" type="curve" smooth="yes"/>
      <point x="582.0" y="-12.0"/>
      <point x="729.0" y="84.2"/>
      <point x="729.0" y="247.2" type="curve" smooth="yes"/>
      <point x="729.0" y="395.8"/>
      <point x="636.0" y="492.2"/>
      <point x="441.0" y="492.2" type="curve" smooth="yes"/>
      <point x="351.0" y="492.2"/>
      <point x="264.0" y="457.4"/>
      <point x="192.0" y="419.8" type="curve"/>
      <point x="189.0" y="419.8" type="line"/>
      <point x="183.0" y="480.2" type="line"/>
      <point x="144.0" y="480.2" type="line"/>
    </contour>
    <contour>
      <point x="414.0" y="27.2" type="curve" smooth="yes"/>
      <point x="357.0" y="27.2"/>
      <point x="276.0" y="44.0"/>
      <point x="189.0" y="89.0" type="curve"/>
      <point x="189.0" y="373.8" type="line"/>
      <point x="282.0" y="425.0"/>
      <point x="363.0" y="453.0"/>
      <point x="438.0" y="453.0" type="curve" smooth="yes"/>
      <point x="615.0" y="453.0"/>
      <point x="681.0" y="365.0"/>
      <point x="681.0" y="247.0" type="curve" smooth="yes"/>
      <point x="681.0" y="116.8"/>
      <point x="570.0" y="27.2"/>
    </contour>
    <contour>
      <point x="417.0" y="504.0" type="move" name="aboveLC"/>
    </contour>
    <contour>
      <point x="159.0" y="-218.0" type="move" name="belowLC"/>
    </contour>
  </outline>
</glyph>
<glyph name="r" format="1">
  <advance width="459.0"/>
  <unicode hex="0072"/>
  <outline>
    <contour>
      <point x="144.0" y="0.0" type="line"/>
      <point x="189.0" y="0.0" type="line"/>
      <point x="189.0" y="326.6" type="line"/>
      <point x="246.0" y="417.4"/>
      <point x="324.0" y="450.2"/>
      <point x="390.0" y="450.2" type="curve" smooth="yes"/>
      <point x="417.0" y="450.2"/>
      <point x="429.0" y="448.0"/>
      <point x="453.0" y="442.2" type="curve"/>
      <point x="465.0" y="482.2" type="line"/>
      <point x="441.0" y="490.0"/>
      <point x="420.0" y="492.2"/>
      <point x="396.0" y="492.2" type="curve" smooth="yes"/>
      <point x="309.0" y="492.2"/>
      <point x="240.0" y="449.6"/>
      <point x="192.0" y="390.6" type="curve"/>
      <point x="189.0" y="390.6" type="line"/>
      <point x="183.0" y="480.2" type="line"/>
      <point x="144.0" y="480.2" type="line"/>
    </contour>
    <contour>
      <point x="288.0" y="504.0" type="move" name="aboveLC"/>
    </contour>
    <contour>
      <point x="165.0" y="-22.0" type="move" name="belowLC"/>
    </contour>
  </outline>
</glyph>
<glyph name="s" format="1">
  <advance width="600.0"/>
  <unicode hex="0073"/>
  <outline>
    <contour>
      <point x="312.0" y="-12.0" type="curve" smooth="yes"/>
      <point x="462.0" y="-12.0"/>
      <point x="546.0" y="51.0"/>
      <point x="546.0" y="123.4" type="curve" smooth="yes"/>
      <point x="546.0" y="217.0"/>
      <point x="420.0" y="241.5"/>
      <point x="306.0" y="269.8" type="curve" smooth="yes"/>
      <point x="219.0" y="291.4"/>
      <point x="132.0" y="312.2"/>
      <point x="132.0" y="367.0" type="curve" smooth="yes"/>
      <point x="132.0" y="411.3"/>
      <point x="186.0" y="454.4"/>
      <point x="306.0" y="454.4" type="curve" smooth="yes"/>
      <point x="381.0" y="454.4"/>
      <point x="432.0" y="434.8"/>
      <point x="480.0" y="410.6" type="curve"/>
      <point x="507.0" y="442.4" type="line"/>
      <point x="456.0" y="470.9"/>
      <point x="381.0" y="492.2"/>
      <point x="309.0" y="492.2" type="curve" smooth="yes"/>
      <point x="162.0" y="492.2"/>
      <point x="84.0" y="433.6"/>
      <point x="84.0" y="364.4" type="curve" smooth="yes"/>
      <point x="84.0" y="282.4"/>
      <point x="207.0" y="252.9"/>
      <point x="318.0" y="227.2" type="curve" smooth="yes"/>
      <point x="402.0" y="207.2"/>
      <point x="498.0" y="180.8"/>
      <point x="498.0" y="120.6" type="curve" smooth="yes"/>
      <point x="498.0" y="70.0"/>
      <point x="435.0" y="25.8"/>
      <point x="315.0" y="25.8" type="curve" smooth="yes"/>
      <point x="207.0" y="25.8"/>
      <point x="141.0" y="52.6"/>
      <point x="81.0" y="86.6" type="curve"/>
      <point x="51.0" y="54.4" type="line"/>
      <point x="114.0" y="17.8"/>
      <point x="204.0" y="-12.0"/>
    </contour>
    <contour>
      <point x="309.0" y="504.0" type="move" name="aboveLC"/>
    </contour>
    <contour>
      <point x="324.0" y="0.0" type="move" name="baseLC"/>
    </contour>
    <contour>
      <point x="324.0" y="-22.0" type="move" name="belowLC"/>
    </contour>
  </outline>
</glyph>
<glyph name="t" format="1">
  <advance width="453.0"/>
  <unicode hex="0074"/>
  <outline>
    <contour>
      <point x="327.0" y="-12.0" type="curve" smooth="yes"/>
      <point x="351.0" y="-12.0"/>
      <point x="396.0" y="-3.8"/>
      <point x="438.0" y="6.0" type="curve"/>
      <point x="423.0" y="41.8" type="line"/>
      <point x="396.0" y="34.2"/>
      <point x="357.0" y="26.6"/>
      <point x="330.0" y="26.6" type="curve" smooth="yes"/>
      <point x="225.0" y="26.6"/>
      <point x="204.0" y="68.0"/>
      <point x="204.0" y="129.3" type="curve" smooth="yes"/>
      <point x="204.0" y="441.6" type="line"/>
      <point x="417.0" y="441.6" type="line"/>
      <point x="417.0" y="480.2" type="line"/>
      <point x="204.0" y="480.2" type="line"/>
      <point x="204.0" y="619.2" type="line"/>
      <point x="165.0" y="619.2" type="line"/>
      <point x="159.0" y="480.2" type="line"/>
      <point x="45.0" y="476.0" type="line"/>
      <point x="45.0" y="441.6" type="line"/>
      <point x="159.0" y="441.6" type="line"/>
      <point x="159.0" y="132.6" type="line" smooth="yes"/>
      <point x="159.0" y="46.6"/>
      <point x="195.0" y="-12.0"/>
    </contour>
    <contour>
      <point x="186.0" y="633.4" type="move" name="aboveLC"/>
    </contour>
    <contour>
      <point x="303.0" y="0.0" type="move" name="baseLC"/>
    </contour>
    <contour>
      <point x="291.0" y="-22.0" type="move" name="belowLC"/>
    </contour>
  </outline>
</glyph>
<glyph name="u" format="1">
  <advance width="786.0"/>
  <unicode hex="0075"/>
  <outline>
    <contour>
      <point x="348.0" y="-12.0" type="curve" smooth="yes"/>
      <point x="447.0" y="-12.0"/>
      <point x="522.0" y="25.2"/>
      <point x="594.0" y="80.4" type="curve"/>
      <point x="597.0" y="80.4" type="line"/>
      <point x="603.0" y="0.0" type="line"/>
      <point x="642.0" y="0.0" type="line"/>
      <point x="642.0" y="480.2" type="line"/>
      <point x="597.0" y="480.2" type="line"/>
      <point x="597.0" y="125.8" type="line"/>
      <point x="507.0" y="57.8"/>
      <point x="441.0" y="27.8"/>
      <point x="351.0" y="27.8" type="curve" smooth="yes"/>
      <point x="228.0" y="27.8"/>
      <point x="177.0" y="76.2"/>
      <point x="177.0" y="178.0" type="curve" smooth="yes"/>
      <point x="177.0" y="480.2" type="line"/>
      <point x="132.0" y="480.2" type="line"/>
      <point x="132.0" y="172.2" type="line" smooth="yes"/>
      <point x="132.0" y="48.2"/>
      <point x="201.0" y="-12.0"/>
    </contour>
    <contour>
      <point x="594.0" y="490.2" type="move" name="hornLC"/>
    </contour>
    <contour>
      <point x="393.0" y="504.0" type="move" name="aboveLC"/>
    </contour>
    <contour>
      <point x="609.0" y="0.0" type="move" name="ogonekLC"/>
    </contour>
    <contour>
      <point x="420.0" y="-22.0" type="move" name="belowLC"/>
    </contour>
  </outline>
</glyph>
<glyph name="y" format="1">
  <advance width="636.0"/>
  <unicode hex="0079"/>
  <outline>
    <contour>
      <point x="99.0" y="-218.6" type="curve" smooth="yes"/>
      <point x="222.0" y="-218.6"/>
      <point x="294.0" y="-140.5"/>
      <point x="330.0" y="-60.4" type="curve"/>
      <point x="618.0" y="480.2" type="line"/>
      <point x="570.0" y="480.2" type="line"/>
      <point x="408.0" y="178.4" type="line" smooth="yes"/>
      <point x="387.0" y="137.6"/>
      <point x="363.0" y="86.2"/>
      <point x="339.0" y="43.6" type="curve"/>
      <point x="333.0" y="43.6" type="line"/>
      <point x="306.0" y="86.4"/>
      <point x="276.0" y="137.8"/>
      <point x="252.0" y="178.4" type="curve" smooth="yes"/>
      <point x="69.0" y="480.2" type="line"/>
      <point x="18.0" y="480.2" type="line"/>
      <point x="315.0" y="-9.0" type="line"/>
      <point x="294.0" y="-50.8" type="line" smooth="yes"/>
      <point x="255.0" y="-124.0"/>
      <point x="192.0" y="-178.2"/>
      <point x="102.0" y="-178.2" type="curve" smooth="yes"/>
      <point x="81.0" y="-178.2"/>
      <point x="57.0" y="-174.2"/>
      <point x="42.0" y="-170.4" type="curve"/>
      <point x="30.0" y="-208.6" type="line"/>
      <point x="48.0" y="-214.6"/>
      <point x="75.0" y="-218.6"/>
    </contour>
    <contour>
      <point x="336.0" y="504.0" type="move" name="aboveLC"/>
    </contour>
    <contour>
      <point x="267.0" y="-241.9" type="move" name="belowLC"/>
    </contour>
  </outline>
</glyph>
<glyph name="bar" format="1">
  <advance width="330.0"/>
  <unicode hex="007C"/>
  <outline>
    <contour>
      <point x="144.0" y="-250.0" type="line"/>
      <point x="186.0" y="-250.0" type="line"/>
      <point x="186.0" y="750.0" type="line"/>
      <point x="144.0" y="750.0" type="line"/>
    </contour>
  </outline>
</glyph>
<glyph name="braceright" format="1">
  <advance width="405.0"/>
  <unicode hex="007D"/>
  <outline>
    <contour>
      <point x="27.0" y="-152.0" type="line"/>
      <point x="72.0" y="-152.0" type="line" smooth="yes"/>
      <point x="180.0" y="-152.0"/>
      <point x="234.0" y="-125.0"/>
      <point x="234.0" y="-24.0" type="curve" smooth="yes"/>
      <point x="234.0" y="49.6"/>
      <point x="222.0" y="112.0"/>
      <point x="222.0" y="181.2" type="curve" smooth="yes"/>
      <point x="222.0" y="222.4"/>
      <point x="246.0" y="262.0"/>
      <point x="351.0" y="262.2" type="curve"/>
      <point x="351.0" y="293.8" type="line"/>
      <point x="246.0" y="294.0"/>
      <point x="222.0" y="333.6"/>
      <point x="222.0" y="373.0" type="curve" smooth="yes"/>
      <point x="222.0" y="444.0"/>
      <point x="234.0" y="506.4"/>
      <point x="234.0" y="580.0" type="curve" smooth="yes"/>
      <point x="234.0" y="681.0"/>
      <point x="180.0" y="708.0"/>
      <point x="72.0" y="708.0" type="curve" smooth="yes"/>
      <point x="27.0" y="708.0" type="line"/>
      <point x="27.0" y="679.2" type="line"/>
      <point x="75.0" y="679.2" type="line" smooth="yes"/>
      <point x="171.0" y="679.2"/>
      <point x="195.0" y="645.8"/>
      <point x="195.0" y="575.8" type="curve" smooth="yes"/>
      <point x="195.0" y="511.3"/>
      <point x="186.0" y="456.2"/>
      <point x="186.0" y="383.8" type="curve" smooth="yes"/>
      <point x="186.0" y="325.4"/>
      <point x="201.0" y="292.0"/>
      <point x="258.0" y="280.0" type="curve"/>
      <point x="258.0" y="276.0" type="line"/>
      <point x="201.0" y="264.0"/>
      <point x="186.0" y="228.8"/>
      <point x="186.0" y="172.2" type="curve" smooth="yes"/>
      <point x="186.0" y="99.8"/>
      <point x="195.0" y="44.7"/>
      <point x="195.0" y="-19.8" type="curve" smooth="yes"/>
      <point x="195.0" y="-89.8"/>
      <point x="171.0" y="-123.2"/>
      <point x="75.0" y="-123.2" type="curve" smooth="yes"/>
      <point x="27.0" y="-123.2" type="line"/>
    </contour>
  </outline>
</glyph>
<glyph name="asciitilde" format="1">
  <advance width="708.0"/>
  <unicode hex="007E"/>
  <outline>
    <contour>
      <point x="489.0" y="266.4" type="curve" smooth="yes"/>
      <point x="546.0" y="266.4"/>
      <point x="606.0" y="292.6"/>
      <point x="645.0" y="347.4" type="curve"/>
      <point x="612.0" y="366.8" type="line"/>
      <point x="576.0" y="320.2"/>
      <point x="537.0" y="303.6"/>
      <point x="492.0" y="303.6" type="curve" smooth="yes"/>
      <point x="405.0" y="303.6"/>
      <point x="333.0" y="393.6"/>
      <point x="219.0" y="393.6" type="curve" smooth="yes"/>
      <point x="162.0" y="393.6"/>
      <point x="102.0" y="367.4"/>
      <point x="63.0" y="310.8" type="curve"/>
      <point x="96.0" y="293.2" type="line"/>
      <point x="132.0" y="339.8"/>
      <point x="171.0" y="356.4"/>
      <point x="216.0" y="356.4" type="curve" smooth="yes"/>
      <point x="303.0" y="356.4"/>
      <point x="375.0" y="266.4"/>
    </contour>
  </outline>
</glyph>
<glyph name="yen" format="1">
  <advance width="708.0"/>
  <unicode hex="00A5"/>
  <outline>
    <contour>
      <point x="330.0" y="0.0" type="line"/>
      <point x="375.0" y="0.0" type="line"/>
      <point x="375.0" y="165.4" type="line"/>
      <point x="630.0" y="165.4" type="line"/>
      <point x="630.0" y="198.6" type="line"/>
      <point x="375.0" y="198.6" type="line"/>
      <point x="375.0" y="270.2" type="line"/>
      <point x="630.0" y="270.2" type="line"/>
      <point x="630.0" y="303.4" type="line"/>
      <point x="393.0" y="303.4" type="line"/>
      <point x="660.0" y="639.4" type="line"/>
      <point x="612.0" y="639.4" type="line"/>
      <point x="462.0" y="445.8" type="line"/>
      <point x="426.0" y="401.9"/>
      <point x="396.0" y="357.9"/>
      <point x="357.0" y="308.6" type="curve"/>
      <point x="351.0" y="308.6" type="line"/>
      <point x="315.0" y="357.8"/>
      <point x="282.0" y="401.8"/>
      <point x="249.0" y="445.8" type="curve" smooth="yes"/>
      <point x="99.0" y="639.4" type="line"/>
      <point x="48.0" y="639.4" type="line"/>
      <point x="312.0" y="303.4" type="line"/>
      <point x="78.0" y="303.4" type="line"/>
      <point x="78.0" y="270.2" type="line"/>
      <point x="330.0" y="270.2" type="line"/>
      <point x="330.0" y="198.6" type="line"/>
      <point x="78.0" y="198.6" type="line"/>
      <point x="78.0" y="165.4" type="line"/>
      <point x="330.0" y="165.4" type="line"/>
    </contour>
  </outline>
</glyph>
<glyph name="brokenbar" format="1">
  <advance width="330.0"/>
  <unicode hex="00A6"/>
  <outline>
    <contour>
      <point x="144.0" y="278.6" type="line"/>
      <point x="186.0" y="278.6" type="line"/>
      <point x="186.0" y="750.0" type="line"/>
      <point x="144.0" y="750.0" type="line"/>
    </contour>
    <contour>
      <point x="144.0" y="-250.0" type="line"/>
      <point x="186.0" y="-250.0" type="line"/>
      <point x="186.0" y="219.8" type="line"/>
      <point x="144.0" y="219.8" type="line"/>
    </contour>
  </outline>
</glyph>
<glyph name="section" format="1">
  <advance width="708.0"/>
  <unicode hex="00A7"/>
  <outline>
    <contour>
      <point x="462.0" y="143.2" type="line"/>
      <point x="555.0" y="173.6"/>
      <point x="630.0" y="206.5"/>
      <point x="630.0" y="284.0" type="curve" smooth="yes"/>
      <point x="630.0" y="469.4"/>
      <point x="207.0" y="435.9"/>
      <point x="207.0" y="566.6" type="curve" smooth="yes"/>
      <point x="207.0" y="604.8"/>
      <point x="249.0" y="643.4"/>
      <point x="357.0" y="643.4" type="curve" smooth="yes"/>
      <point x="435.0" y="643.4"/>
      <point x="483.0" y="623.3"/>
      <point x="531.0" y="597.2" type="curve"/>
      <point x="558.0" y="627.6" type="line"/>
      <point x="504.0" y="657.9"/>
      <point x="435.0" y="681.2"/>
      <point x="357.0" y="681.2" type="curve" smooth="yes"/>
      <point x="222.0" y="681.2"/>
      <point x="162.0" y="620.8"/>
      <point x="162.0" y="564.2" type="curve" smooth="yes"/>
      <point x="162.0" y="400.8"/>
      <point x="585.0" y="436.4"/>
      <point x="585.0" y="280.8" type="curve" smooth="yes"/>
      <point x="585.0" y="221.0"/>
      <point x="531.0" y="198.2"/>
      <point x="441.0" y="173.4" type="curve"/>
    </contour>
    <contour>
      <point x="348.0" y="-52.4" type="curve" smooth="yes"/>
      <point x="453.0" y="-52.4"/>
      <point x="552.0" y="-0.2"/>
      <point x="552.0" y="72.2" type="curve" smooth="yes"/>
      <point x="552.0" y="240.8"/>
      <point x="123.0" y="203.8"/>
      <point x="123.0" y="355.4" type="curve" smooth="yes"/>
      <point x="123.0" y="408.7"/>
      <point x="177.0" y="436.2"/>
      <point x="252.0" y="462.6" type="curve"/>
      <point x="234.0" y="491.2" type="line"/>
      <point x="150.0" y="463.6"/>
      <point x="78.0" y="423.0"/>
      <point x="78.0" y="352.4" type="curve" smooth="yes"/>
      <point x="78.0" y="169.6"/>
      <point x="507.0" y="205.6"/>
      <point x="507.0" y="69.6" type="curve" smooth="yes"/>
      <point x="507.0" y="24.4"/>
      <point x="444.0" y="-14.6"/>
      <point x="348.0" y="-14.6" type="curve" smooth="yes"/>
      <point x="252.0" y="-14.6"/>
      <point x="198.0" y="6.8"/>
      <point x="147.0" y="39.0" type="curve"/>
      <point x="114.0" y="10.6" type="line"/>
      <point x="171.0" y="-26.2"/>
      <point x="246.0" y="-52.4"/>
    </contour>
  </outline>
</glyph>
<glyph name="logicalnot" format="1">
  <advance width="708.0"/>
  <unicode hex="00AC"/>
  <outline>
    <contour>
      <point x="609.0" y="109.8" type="line"/>
      <point x="657.0" y="109.8" type="line"/>
      <point x="657.0" y="348.6" type="line"/>
      <point x="51.0" y="348.6" type="line"/>
      <point x="51.0" y="311.4" type="line"/>
      <point x="609.0" y="311.4" type="line"/>
    </contour>
  </outline>
</glyph>
<glyph name="registered" format="1">
  <advance width="588.0"/>
  <unicode hex="00AE"/>
  <outline>
    <contour>
      <point x="294.0" y="324.2" type="curve" smooth="yes"/>
      <point x="441.0" y="324.2"/>
      <point x="564.0" y="401.2"/>
      <point x="564.0" y="517.4" type="curve" smooth="yes"/>
      <point x="564.0" y="633.6"/>
      <point x="441.0" y="712.4"/>
      <point x="294.0" y="712.4" type="curve" smooth="yes"/>
      <point x="147.0" y="712.4"/>
      <point x="24.0" y="633.6"/>
      <point x="24.0" y="517.4" type="curve" smooth="yes"/>
      <point x="24.0" y="401.2"/>
      <point x="147.0" y="324.2"/>
    </contour>
    <contour>
      <point x="294.0" y="353.0" type="curve" smooth="yes"/>
      <point x="168.0" y="353.0"/>
      <point x="66.0" y="421.8"/>
      <point x="66.0" y="517.4" type="curve" smooth="yes"/>
      <point x="66.0" y="613.0"/>
      <point x="168.0" y="683.6"/>
      <point x="294.0" y="683.6" type="curve" smooth="yes"/>
      <point x="420.0" y="683.6"/>
      <point x="522.0" y="613.0"/>
      <point x="522.0" y="517.4" type="curve" smooth="yes"/>
      <point x="522.0" y="421.8"/>
      <point x="420.0" y="353.0"/>
    </contour>
    <contour>
      <point x="195.0" y="417.8" type="line"/>
      <point x="237.0" y="417.8" type="line"/>
      <point x="237.0" y="493.6" type="line"/>
      <point x="312.0" y="493.6" type="line"/>
      <point x="372.0" y="417.8" type="line"/>
      <point x="423.0" y="417.8" type="line"/>
      <point x="348.0" y="504.4" type="line"/>
      <point x="381.0" y="511.0"/>
      <point x="408.0" y="534.6"/>
      <point x="408.0" y="560.2" type="curve" smooth="yes"/>
      <point x="408.0" y="609.6"/>
      <point x="351.0" y="624.4"/>
      <point x="294.0" y="624.4" type="curve" smooth="yes"/>
      <point x="195.0" y="624.4" type="line"/>
    </contour>
    <contour>
      <point x="237.0" y="521.3" type="line"/>
      <point x="237.0" y="596.3" type="line"/>
      <point x="288.0" y="596.3" type="line" smooth="yes"/>
      <point x="345.0" y="596.3"/>
      <point x="363.0" y="580.9"/>
      <point x="363.0" y="558.0" type="curve" smooth="yes"/>
      <point x="363.0" y="531.6"/>
      <point x="330.0" y="521.3"/>
      <point x="282.0" y="521.3" type="curve" smooth="yes"/>
    </contour>
  </outline>
</glyph>
<glyph name="plusminus" format="1">
  <advance width="708.0"/>
  <unicode hex="00B1"/>
  <outline>
    <contour>
      <point x="330.0" y="108.8" type="line"/>
      <point x="378.0" y="108.8" type="line"/>
      <point x="378.0" y="309.8" type="line"/>
      <point x="657.0" y="309.8" type="line"/>
      <point x="657.0" y="347.0" type="line"/>
      <point x="378.0" y="347.0" type="line"/>
      <point x="378.0" y="550.2" type="line"/>
      <point x="330.0" y="550.2" type="line"/>
      <point x="330.0" y="347.0" type="line"/>
      <point x="51.0" y="347.0" type="line"/>
      <point x="51.0" y="309.8" type="line"/>
      <point x="330.0" y="309.8" type="line"/>
    </contour>
    <contour>
      <point x="51.0" y="0.0" type="line"/>
      <point x="657.0" y="0.0" type="line"/>
      <point x="657.0" y="37.2" type="line"/>
      <point x="51.0" y="37.2" type="line"/>
    </contour>
  </outline>
</glyph>
<glyph name="paragraph" format="1">
  <advance width="747.0"/>
  <unicode hex="00B6"/>
  <outline>
    <contour>
      <point x="555.0" y="-80.0" type="line"/>
      <point x="603.0" y="-80.0" type="line"/>
      <point x="603.0" y="659.0" type="line"/>
      <point x="555.0" y="659.0" type="line"/>
    </contour>
    <contour>
      <point x="435.0" y="243.6" type="curve" smooth="yes"/>
      <point x="474.0" y="243.6" type="line"/>
      <point x="474.0" y="659.0" type="line"/>
      <point x="408.0" y="659.0" type="line" smooth="yes"/>
      <point x="204.0" y="659.0"/>
      <point x="63.0" y="601.4"/>
      <point x="63.0" y="451.0" type="curve" smooth="yes"/>
      <point x="63.0" y="302.3"/>
      <point x="213.0" y="243.6"/>
    </contour>
  </outline>
</glyph>
<glyph name="AE" format="1">
  <advance width="1206.0"/>
  <unicode hex="00C6"/>
  <outline>
    <contour>
      <point x="39.0" y="0.0" type="line"/>
      <point x="90.0" y="0.0" type="line"/>
      <point x="420.0" y="387.6" type="line"/>
      <point x="486.0" y="466.6"/>
      <point x="552.0" y="544.6"/>
      <point x="615.0" y="619.2" type="curve"/>
      <point x="621.0" y="619.2" type="line"/>
      <point x="621.0" y="0.0" type="line"/>
      <point x="1137.0" y="0.0" type="line"/>
      <point x="1137.0" y="39.6" type="line"/>
      <point x="669.0" y="39.6" type="line"/>
      <point x="669.0" y="330.2" type="line"/>
      <point x="1044.0" y="330.2" type="line"/>
      <point x="1044.0" y="369.8" type="line"/>
      <point x="669.0" y="369.8" type="line"/>
      <point x="669.0" y="619.4" type="line"/>
      <point x="1122.0" y="619.4" type="line"/>
      <point x="1122.0" y="659.0" type="line"/>
      <point x="597.0" y="659.0" type="line"/>
    </contour>
    <contour>
      <point x="261.0" y="216.6" type="line"/>
      <point x="663.0" y="216.6" type="line"/>
      <point x="663.0" y="255.1" type="line"/>
      <point x="261.0" y="255.1" type="line"/>
    </contour>
    <contour>
      <point x="879.0" y="694.0" type="move" name="aboveUC"/>
    </contour>
  </outline>
</glyph>
<glyph name="Eth" format="1">
  <advance width="930.0"/>
  <unicode hex="00D0"/>
  <outline>
    <contour>
      <point x="57.0" y="331.8" type="line"/>
      <point x="480.0" y="331.8" type="line"/>
      <point x="480.0" y="365.0" type="line"/>
      <point x="183.0" y="365.0" type="line"/>
      <point x="57.0" y="362.6" type="line"/>
    </contour>
    <component base="D" xOffset="20"/>
  </outline>
</glyph>
<glyph name="multiply" format="1">
  <advance width="708.0"/>
  <unicode hex="00D7"/>
  <outline>
    <contour>
      <point x="108.0" y="134.8" type="line"/>
      <point x="354.0" y="303.4" type="line"/>
      <point x="600.0" y="134.8" type="line"/>
      <point x="630.0" y="163.1" type="line"/>
      <point x="384.0" y="329.9" type="line"/>
      <point x="630.0" y="496.7" type="line"/>
      <point x="600.0" y="525.0" type="line"/>
      <point x="354.0" y="356.4" type="line"/>
      <point x="108.0" y="525.0" type="line"/>
      <point x="78.0" y="496.7" type="line"/>
      <point x="324.0" y="329.9" type="line"/>
      <point x="78.0" y="163.1" type="line"/>
    </contour>
  </outline>
</glyph>
<glyph name="Oslash" format="1">
  <advance width="972.0"/>
  <unicode hex="00D8"/>
  <outline>
    <contour>
      <point x="120.0" y="-22.6" type="line"/>
      <point x="879.0" y="660.4" type="line"/>
      <point x="846.0" y="681.6" type="line"/>
      <point x="87.0" y="-1.4" type="line"/>
    </contour>
    <component base="O" xOffset="4"/>
    <contour>
      <point x="483.0" y="681.0" type="move" name="aboveUC"/>
    </contour>
  </outline>
</glyph>
<glyph name="Thorn" format="1">
  <advance width="834.0"/>
  <unicode hex="00DE"/>
  <outline>
    <contour>
      <point x="150.0" y="0.0" type="line"/>
      <point x="198.0" y="0.0" type="line"/>
      <point x="198.0" y="166.0" type="line"/>
      <point x="408.0" y="166.0" type="line" smooth="yes"/>
      <point x="630.0" y="166.0"/>
      <point x="756.0" y="228.7"/>
      <point x="756.0" y="358.0" type="curve" smooth="yes"/>
      <point x="756.0" y="493.2"/>
      <point x="630.0" y="541.6"/>
      <point x="408.0" y="541.6" type="curve" smooth="yes"/>
      <point x="198.0" y="541.6" type="line"/>
      <point x="198.0" y="659.0" type="line"/>
      <point x="150.0" y="659.0" type="line"/>
    </contour>
    <contour>
      <point x="198.0" y="204.8" type="line"/>
      <point x="198.0" y="502.8" type="line"/>
      <point x="390.0" y="502.8" type="line" smooth="yes"/>
      <point x="603.0" y="502.8"/>
      <point x="705.0" y="468.2"/>
      <point x="705.0" y="358.0" type="curve" smooth="yes"/>
      <point x="705.0" y="249.6"/>
      <point x="603.0" y="204.8"/>
      <point x="390.0" y="204.8" type="curve" smooth="yes"/>
    </contour>
  </outline>
</glyph>
<glyph name="thorn" format="1">
  <advance width="810.0"/>
  <unicode hex="00FE"/>
  <outline>
    <contour>
      <point x="144.0" y="-217.4" type="line"/>
      <point x="189.0" y="-217.4" type="line"/>
      <point x="189.0" y="-41.6" type="line"/>
      <point x="189.0" y="46.4" type="line"/>
      <point x="267.0" y="9.4"/>
      <point x="342.0" y="-12.0"/>
      <point x="411.0" y="-12.0" type="curve" smooth="yes"/>
      <point x="582.0" y="-12.0"/>
      <point x="729.0" y="84.2"/>
      <point x="729.0" y="247.2" type="curve" smooth="yes"/>
      <point x="729.0" y="395.8"/>
      <point x="636.0" y="492.2"/>
      <point x="441.0" y="492.2" type="curve" smooth="yes"/>
      <point x="351.0" y="492.2"/>
      <point x="264.0" y="458.2"/>
      <point x="189.0" y="421.2" type="curve"/>
      <point x="189.0" y="512.3" type="line"/>
      <point x="189.0" y="719.4" type="line"/>
      <point x="144.0" y="719.4" type="line"/>
    </contour>
    <contour>
      <point x="414.0" y="27.2" type="curve" smooth="yes"/>
      <point x="357.0" y="27.2"/>
      <point x="276.0" y="44.0"/>
      <point x="189.0" y="89.0" type="curve"/>
      <point x="189.0" y="373.8" type="line"/>
      <point x="282.0" y="425.0"/>
      <point x="363.0" y="453.0"/>
      <point x="438.0" y="453.0" type="curve" smooth="yes"/>
      <point x="615.0" y="453.0"/>
      <point x="681.0" y="365.0"/>
      <point x="681.0" y="247.0" type="curve" smooth="yes"/>
      <point x="681.0" y="116.8"/>
      <point x="570.0" y="27.2"/>
    </contour>
    <contour>
      <point x="171.0" y="730.0" type="move" name="aboveLC"/>
    </contour>
    <contour>
      <point x="414.0" y="-22.0" type="move" name="belowLC"/>
    </contour>
  </outline>
</glyph>
<glyph name="dotlessi" format="1">
  <advance width="333.0"/>
  <unicode hex="0131"/>
  <outline>
    <contour>
      <point x="144.0" y="0.0" type="line"/>
      <point x="189.0" y="0.0" type="line"/>
      <point x="189.0" y="480.2" type="line"/>
      <point x="144.0" y="480.2" type="line"/>
    </contour>
    <contour>
      <point x="195.0" y="0.0" type="move" name="ogonekLC"/>
    </contour>
    <contour>
      <point x="168.0" y="504.0" type="move" name="aboveLC"/>
    </contour>
    <contour>
      <point x="165.0" y="-22.0" type="move" name="belowLC"/>
    </contour>
  </outline>
</glyph>
<glyph name="guilsinglleft" format="1">
  <advance width="381.0"/>
  <unicode hex="2039"/>
  <outline>
    <contour>
      <point x="270.0" y="71.8" type="line"/>
      <point x="300.0" y="91.2" type="line"/>
      <point x="114.0" y="252.0" type="line"/>
      <point x="300.0" y="411.0" type="line"/>
      <point x="270.0" y="432.2" type="line"/>
      <point x="63.0" y="270.6" type="line"/>
      <point x="63.0" y="233.4" type="line"/>
    </contour>
  </outline>
</glyph>
<glyph name=".notdef" format="1">
  <advance width="936.0"/>
  <outline>
    <contour>
      <point x="144.0" y="0.0" type="line"/>
      <point x="792.0" y="0.0" type="line"/>
      <point x="792.0" y="660.0" type="line"/>
      <point x="144.0" y="660.0" type="line"/>
    </contour>
    <contour>
      <point x="216.0" y="39.2" type="line"/>
      <point x="369.0" y="203.2" type="line"/>
      <point x="465.0" y="308.2" type="line"/>
      <point x="471.0" y="308.2" type="line"/>
      <point x="564.0" y="203.2" type="line"/>
      <point x="714.0" y="39.2" type="line"/>
    </contour>
    <contour>
      <point x="465.0" y="371.8" type="line"/>
      <point x="381.0" y="464.2" type="line"/>
      <point x="240.0" y="619.0" type="line"/>
      <point x="693.0" y="619.0" type="line"/>
      <point x="552.0" y="464.2" type="line"/>
      <point x="471.0" y="371.8" type="line"/>
    </contour>
    <contour>
      <point x="201.0" y="83.8" type="line"/>
      <point x="201.0" y="599.8" type="line"/>
      <point x="432.0" y="340.0" type="line"/>
    </contour>
    <contour>
      <point x="732.0" y="83.8" type="line"/>
      <point x="504.0" y="340.0" type="line"/>
      <point x="732.0" y="599.8" type="line"/>
    </contour>
  </outline>
</glyph>
<glyph name="a.sups" format="1">
  <advance width="501.0"/>
  <outline>
    <contour>
      <point x="210.0" y="397.8" type="curve" smooth="yes"/>
      <point x="276.0" y="397.8"/>
      <point x="330.0" y="421.0"/>
      <point x="372.0" y="445.0" type="curve"/>
      <point x="378.0" y="445.0" type="line"/>
      <point x="387.0" y="405.8" type="line"/>
      <point x="420.0" y="405.8" type="line"/>
      <point x="420.0" y="606.2" type="line" smooth="yes"/>
      <point x="420.0" y="681.6"/>
      <point x="387.0" y="731.4"/>
      <point x="273.0" y="731.4" type="curve" smooth="yes"/>
      <point x="195.0" y="731.4"/>
      <point x="123.0" y="706.4"/>
      <point x="87.0" y="689.2" type="curve"/>
      <point x="105.0" y="661.6" type="line"/>
      <point x="138.0" y="677.8"/>
      <point x="207.0" y="698.6"/>
      <point x="270.0" y="698.6" type="curve" smooth="yes"/>
      <point x="357.0" y="698.6"/>
      <point x="378.0" y="658.1"/>
      <point x="378.0" y="607.2" type="curve"/>
      <point x="162.0" y="593.4"/>
      <point x="66.0" y="559.0"/>
      <point x="66.0" y="489.0" type="curve" smooth="yes"/>
      <point x="66.0" y="431.4"/>
      <point x="126.0" y="397.8"/>
    </contour>
    <contour>
      <point x="219.0" y="430.2" type="curve" smooth="yes"/>
      <point x="153.0" y="430.2"/>
      <point x="111.0" y="449.0"/>
      <point x="111.0" y="491.8" type="curve" smooth="yes"/>
      <point x="111.0" y="536.8"/>
      <point x="180.0" y="567.4"/>
      <point x="378.0" y="580.6" type="curve"/>
      <point x="378.0" y="479.0" type="line"/>
      <point x="321.0" y="445.4"/>
      <point x="267.0" y="430.2"/>
    </contour>
  </outline>
</glyph>
<glyph name="cedillacmb.cap" format="1">
  <advance width="0"/>
  <outline>
    <contour>
      <point x="-111.0" y="-218.8" type="line"/>
      <point x="24.0" y="-213.0"/>
      <point x="96.0" y="-186.4"/>
      <point x="96.0" y="-134.2" type="curve" smooth="yes"/>
      <point x="96.0" y="-94.0"/>
      <point x="54.0" y="-75.6"/>
      <point x="-9.0" y="-65.4" type="curve"/>
      <point x="36.0" y="2.2" type="line"/>
      <point x="-6.0" y="2.2" type="line"/>
      <point x="-66.0" y="-85.2" type="line"/>
      <point x="15.0" y="-93.2"/>
      <point x="51.0" y="-107.2"/>
      <point x="51.0" y="-136.0" type="curve" smooth="yes"/>
      <point x="51.0" y="-165.8"/>
      <point x="12.0" y="-183.0"/>
      <point x="-120.0" y="-188.8" type="curve"/>
    </contour>
    <contour>
      <point x="0.0" y="0.0" type="move" name="_baseLC"/>
    </contour>
  </outline>
</glyph>
<glyph name="circumflexcmb.cap" format="1">
  <advance width="0"/>
  <outline>
    <contour>
      <point x="-195.0" y="725.8" type="line"/>
      <point x="-174.0" y="707.0" type="line"/>
      <point x="-3.0" y="805.0" type="line"/>
      <point x="3.0" y="805.0" type="line"/>
      <point x="174.0" y="707.0" type="line"/>
      <point x="195.0" y="725.8" type="line"/>
      <point x="21.0" y="839.4" type="line"/>
      <point x="-21.0" y="839.4" type="line"/>
    </contour>
    <contour>
      <point x="0.0" y="681.0" type="move" name="_aboveUC"/>
    </contour>
  </outline>
</glyph>
<glyph name="four.dnom" format="1">
  <advance width="540.0"/>
  <outline>
    <contour>
      <point x="336.0" y="0.0" type="line"/>
      <point x="378.0" y="0.0" type="line"/>
      <point x="378.0" y="390.0" type="line"/>
      <point x="345.0" y="390.0" type="line"/>
      <point x="72.0" y="134.8" type="line"/>
      <point x="72.0" y="114.2" type="line"/>
      <point x="465.0" y="114.2" type="line"/>
      <point x="465.0" y="145.6" type="line"/>
      <point x="132.0" y="145.6" type="line"/>
      <point x="249.0" y="253.8" type="line"/>
      <point x="336.0" y="337.0" type="line"/>
      <point x="342.0" y="337.0" type="line"/>
      <point x="336.0" y="233.2" type="line"/>
    </contour>
  </outline>
</glyph>
<glyph name="gravecmb.cap" format="1">
  <advance width="0"/>
  <outline>
    <contour>
      <point x="33.0" y="706.4" type="line"/>
      <point x="54.0" y="729.4" type="line"/>
      <point x="-123.0" y="851.8" type="line"/>
      <point x="-156.0" y="819.2" type="line"/>
    </contour>
    <contour>
      <point x="0.0" y="681.0" type="move" name="_aboveUC"/>
    </contour>
  </outline>
</glyph>
<glyph name="gravecmb" format="1">
  <advance width="0"/>
  <outline>
    <contour>
      <point x="51.0" y="573.8" type="line"/>
      <point x="78.0" y="596.6" type="line"/>
      <point x="-120.0" y="754.0" type="line"/>
      <point x="-156.0" y="724.6" type="line"/>
    </contour>
    <contour>
      <point x="0.0" y="504.0" type="move" name="_aboveLC"/>
    </contour>
  </outline>
</glyph>
<glyph name="one.dnom" format="1">
  <advance width="540.0"/>
  <outline>
    <contour>
      <point x="267.0" y="0.0" type="line"/>
      <point x="309.0" y="0.0" type="line"/>
      <point x="309.0" y="390.0" type="line"/>
      <point x="270.0" y="390.0" type="line"/>
      <point x="237.0" y="371.4"/>
      <point x="198.0" y="359.4"/>
      <point x="144.0" y="351.4" type="curve"/>
      <point x="144.0" y="324.0" type="line"/>
      <point x="267.0" y="324.0" type="line"/>
    </contour>
  </outline>
</glyph>
<glyph name="ringcmb.cap" format="1">
  <advance width="0"/>
  <outline>
    <contour>
      <point x="0.0" y="699.6" type="curve" smooth="yes"/>
      <point x="67.5" y="699.6"/>
      <point x="126.0" y="734.2"/>
      <point x="126.0" y="785.4" type="curve" smooth="yes"/>
      <point x="126.0" y="837.5"/>
      <point x="67.5" y="871.2"/>
      <point x="0.0" y="871.2" type="curve" smooth="yes"/>
      <point x="-70.5" y="871.2"/>
      <point x="-126.0" y="837.5"/>
      <point x="-126.0" y="785.4" type="curve" smooth="yes"/>
      <point x="-126.0" y="734.2"/>
      <point x="-70.5" y="699.6"/>
    </contour>
    <contour>
      <point x="0.0" y="725.6" type="curve" smooth="yes"/>
      <point x="-49.5" y="725.6"/>
      <point x="-90.0" y="746.1"/>
      <point x="-90.0" y="785.4" type="curve" smooth="yes"/>
      <point x="-90.0" y="822.9"/>
      <point x="-49.5" y="845.2"/>
      <point x="0.0" y="845.2" type="curve" smooth="yes"/>
      <point x="46.5" y="845.2"/>
      <point x="87.0" y="822.9"/>
      <point x="87.0" y="785.4" type="curve" smooth="yes"/>
      <point x="87.0" y="746.1"/>
      <point x="46.5" y="725.6"/>
    </contour>
    <contour>
      <point x="0.0" y="681.0" type="move" name="_aboveUC"/>
    </contour>
  </outline>
</glyph>
<glyph name="three.dnom" format="1">
  <advance width="540.0"/>
  <outline>
    <contour>
      <point x="264.0" y="-12.0" type="curve" smooth="yes"/>
      <point x="372.0" y="-12.0"/>
      <point x="456.0" y="30.8"/>
      <point x="456.0" y="102.8" type="curve" smooth="yes"/>
      <point x="456.0" y="157.6"/>
      <point x="387.0" y="191.4"/>
      <point x="315.0" y="200.4" type="curve"/>
      <point x="381.0" y="217.0"/>
      <point x="432.0" y="250.2"/>
      <point x="432.0" y="299.2" type="curve" smooth="yes"/>
      <point x="432.0" y="363.6"/>
      <point x="354.0" y="402.0"/>
      <point x="258.0" y="402.0" type="curve" smooth="yes"/>
      <point x="186.0" y="402.0"/>
      <point x="126.0" y="374.8"/>
      <point x="87.0" y="339.4" type="curve"/>
      <point x="117.0" y="317.0" type="line"/>
      <point x="156.0" y="347.8"/>
      <point x="207.0" y="369.2"/>
      <point x="255.0" y="369.2" type="curve" smooth="yes"/>
      <point x="336.0" y="369.2"/>
      <point x="387.0" y="339.2"/>
      <point x="387.0" y="295.6" type="curve" smooth="yes"/>
      <point x="387.0" y="251.2"/>
      <point x="318.0" y="212.4"/>
      <point x="195.0" y="212.4" type="curve"/>
      <point x="195.0" y="183.8" type="line"/>
      <point x="327.0" y="183.8"/>
      <point x="411.0" y="155.4"/>
      <point x="411.0" y="103.8" type="curve" smooth="yes"/>
      <point x="411.0" y="51.0"/>
      <point x="345.0" y="20.8"/>
      <point x="267.0" y="20.8" type="curve" smooth="yes"/>
      <point x="198.0" y="20.8"/>
      <point x="135.0" y="47.2"/>
      <point x="99.0" y="84.6" type="curve"/>
      <point x="63.0" y="62.6" type="line"/>
      <point x="102.0" y="23.0"/>
      <point x="174.0" y="-12.0"/>
    </contour>
  </outline>
</glyph>
<glyph name="zero.dnom" format="1">
  <advance width="540.0"/>
  <outline>
    <contour>
      <point x="270.0" y="-12.0" type="curve" smooth="yes"/>
      <point x="399.0" y="-12.0"/>
      <point x="477.0" y="62.4"/>
      <point x="477.0" y="196.0" type="curve" smooth="yes"/>
      <point x="477.0" y="327.8"/>
      <point x="399.0" y="402.0"/>
      <point x="270.0" y="402.0" type="curve" smooth="yes"/>
      <point x="141.0" y="402.0"/>
      <point x="63.0" y="327.8"/>
      <point x="63.0" y="196.0" type="curve" smooth="yes"/>
      <point x="63.0" y="62.4"/>
      <point x="141.0" y="-12.0"/>
    </contour>
    <contour>
      <point x="270.0" y="20.8" type="curve" smooth="yes"/>
      <point x="171.0" y="20.8"/>
      <point x="108.0" y="84.6"/>
      <point x="108.0" y="196.0" type="curve" smooth="yes"/>
      <point x="108.0" y="307.4"/>
      <point x="171.0" y="369.2"/>
      <point x="270.0" y="369.2" type="curve" smooth="yes"/>
      <point x="369.0" y="369.2"/>
      <point x="432.0" y="307.4"/>
      <point x="432.0" y="196.0" type="curve" smooth="yes"/>
      <point x="432.0" y="84.6"/>
      <point x="369.0" y="20.8"/>
    </contour>
  </outline>
</glyph>
